HIERARCHY
ROOT Hips
{
	OFFSET -3.958830 18.904000 13.208200
	CHANNELS 6 Xposition Yposition Zposition Zrotation Yrotation Xrotation 
	JOINT LHipJoint
	{
		OFFSET 0.000000 0.000000 0.000000
		CHANNELS 3 Zrotation Yrotation Xrotation
		JOINT LeftUpLeg
		{
			OFFSET 1.800000 -1.400000 0.085000
			CHANNELS 3 Zrotation Yrotation Xrotation
			JOINT LeftLeg
			{
				OFFSET 2.215000 -6.000000 0.000000
				CHANNELS 3 Zrotation Yrotation Xrotation
				JOINT LeftFoot
				{
					OFFSET 2.500000 -6.900000 0.000000
					CHANNELS 3 Zrotation Yrotation Xrotation
					JOINT LeftToeBase
					{
						OFFSET 0.200000 -0.500000 1.950000
						CHANNELS 3 Zrotation Yrotation Xrotation
						End Site
						{
							OFFSET 0.000000 0.000000 0.000000
						}
					}
				}
			}
		}
	}
	JOINT RHipJoint
	{
		OFFSET 0.000000 0.000000 0.000000
		CHANNELS 3 Zrotation Yrotation Xrotation
		JOINT RightUpLeg
		{
			OFFSET -1.800000 -1.400000 0.085000
			CHANNELS 3 Zrotation Yrotation Xrotation
			JOINT RightLeg
			{
				OFFSET -2.215000 -6.000000 0.000000
				CHANNELS 3 Zrotation Yrotation Xrotation
				JOINT RightFoot
				{
					OFFSET -2.500000 -6.900000 0.000000
					CHANNELS 3 Zrotation Yrotation Xrotation
					JOINT RightToeBase
					{
						OFFSET -0.200000 -0.500000 1.950000
						CHANNELS 3 Zrotation Yrotation Xrotation
						End Site
						{
							OFFSET 0.000000 0.000000 0.000000
						}
					}
				}
			}
		}
	}
	JOINT LowerBack
	{
		OFFSET 0.000000 0.000000 0.000000
		CHANNELS 3 Zrotation Yrotation Xrotation
		JOINT Spine
		{
			OFFSET -0.087000 1.940000 -0.288900
			CHANNELS 3 Zrotation Yrotation Xrotation
			JOINT Spine1
			{
				OFFSET 0.000000 1.950000 0.060000
				CHANNELS 3 Zrotation Yrotation Xrotation
				JOINT Neck
				{
					OFFSET 0.000000 0.000000 0.000000
					CHANNELS 3 Zrotation Yrotation Xrotation
					JOINT Neck1
					{
						OFFSET 0.000000 1.600000 0.340000
						CHANNELS 3 Zrotation Yrotation Xrotation
						JOINT Head
						{
							OFFSET 0.000000 1.667000 -0.240000
							CHANNELS 3 Zrotation Yrotation Xrotation
							End Site
							{
								OFFSET 0.000000 0.000000 0.000000
							}
						}
					}
				}
				JOINT LeftShoulder
				{
					OFFSET 0.000000 0.000000 0.000000
					CHANNELS 3 Zrotation Yrotation Xrotation
					JOINT LeftArm
					{
						OFFSET 2.700000 1.550000 -0.730000
						CHANNELS 3 Zrotation Yrotation Xrotation
						JOINT LeftForeArm
						{
							OFFSET 5.450000 0.000000 0.000000
							CHANNELS 3 Zrotation Yrotation Xrotation
							JOINT LeftHand
							{
								OFFSET 3.450000 0.000000 0.000000
								CHANNELS 3 Zrotation Yrotation Xrotation
								JOINT LeftHandIndex1
								{
									OFFSET 0.750000 0.000000 0.000000
									CHANNELS 3 Zrotation Yrotation Xrotation
									End Site
									{
										OFFSET 0.000000 0.000000 0.000000
									}
								}
							}
						}
					}
				}
				JOINT RightShoulder
				{
					OFFSET 0.000000 0.000000 0.000000
					CHANNELS 3 Zrotation Yrotation Xrotation
					JOINT RightArm
					{
						OFFSET -2.700000 1.550000 -0.730000
						CHANNELS 3 Zrotation Yrotation Xrotation
						JOINT RightForeArm
						{
							OFFSET -5.450000 0.000000 0.000000
							CHANNELS 3 Zrotation Yrotation Xrotation
							JOINT RightHand
							{
								OFFSET -3.450000 0.000000 0.000000
								CHANNELS 3 Zrotation Yrotation Xrotation
								JOINT RightHandIndex1
								{
									OFFSET -0.750000 0.000000 0.000000
									CHANNELS 3 Zrotation Yrotation Xrotation
									End Site
									{
										OFFSET 0.000000 0.000000 0.000000
									}
								}
							}
						}
					}
				}
			}
		}
	}
}
MOTION
Frames: 8
Frame Time: 0.016667
-0.652790 17.828610 -2.603540 -31.489856 50.722998 -38.007305 -15.649844 12.878915 1.388325 20.849294 -1.846738 -11.023860 -1.001151 8.260650 29.758812 0.059116 6.359789 2.295803 0.323280 0.370030 -0.062050 18.208589 -8.494649 5.131230 -23.010169 3.453053 -52.805701 13.459303 -19.929837 56.218139 -1.159456 -10.374232 0.691566 0.402020 0.342790 0.029920 -4.713195 -1.636629 -8.720632 18.763921 -8.333023 32.596901 -6.578556 -2.418638 20.868116 2.819874 1.747831 -7.828181 -0.392363 -9.600440 33.963996 5.621900 -13.513720 -5.044750 -4.602424 -33.313718 2.773728 18.614745 -54.992099 -13.079885 80.883935 -37.620182 -29.162789 -4.055581 2.703741 -0.179010 0.185310 -0.235010 0.235190 -0.693629 28.534658 5.039333 -28.587561 16.128432 -13.347272 -74.729484 36.993458 -25.228258 2.242240 -1.687219 -0.045650 0.253710 -0.027650 0.142580 
-0.645900 17.850860 -2.594060 -32.030062 51.044056 -38.567546 -15.664466 12.853895 1.314978 20.943714 -1.716500 -10.856981 -0.577909 8.119451 29.514612 0.055575 6.309653 2.318630 0.304330 0.345130 -0.079190 18.209122 -8.423449 5.207225 -22.974473 3.763682 -52.754051 14.498092 -22.119016 59.367488 -1.369041 -11.177938 0.472476 0.388600 0.356170 0.030430 -4.758844 -1.597152 -8.768942 19.080984 -8.234074 32.245439 -6.439747 -2.276374 21.147995 2.964231 1.959785 -7.769504 -0.188658 -9.507679 34.907050 5.913300 -13.666200 -4.440060 -5.749519 -33.304619 2.894078 12.787421 -55.967682 -9.058691 84.360582 -40.087891 -32.747921 -4.038342 2.610766 -0.181470 0.192080 -0.245610 0.233490 0.266589 28.214691 5.064878 -26.754467 17.110877 -12.668990 -80.604880 40.881009 -30.710297 2.167453 -1.570946 -0.051680 0.251520 -0.016390 0.144800 
-0.643760 17.890720 -2.572150 -32.584728 51.691517 -38.667549 -15.693860 12.712412 1.208204 20.859583 -1.463279 -10.863892 -0.568361 8.030471 28.645405 0.031475 6.180967 2.367605 0.300800 0.340500 -0.092930 18.214448 -8.301097 5.362948 -22.831467 4.603611 -53.076874 16.013160 -25.831928 64.597051 -1.743126 -12.491049 0.134749 0.390370 0.368850 0.023450 -4.914967 -1.347046 -8.877242 19.895943 -7.804413 31.443731 -6.691019 -1.700180 21.072686 3.329732 2.402776 -7.388918 0.444304 -9.987893 35.871292 6.895900 -14.498690 -4.650330 -7.973767 -32.767222 2.621495 1.349777 -57.120544 -0.328632 90.131570 -44.876243 -40.061798 -3.951973 2.405915 -0.178380 0.187950 -0.252480 0.236470 1.892210 27.067425 4.986834 -23.275061 18.960779 -10.930876 -90.119192 47.754845 -41.922624 2.013510 -1.270254 -0.058300 0.264660 -0.009160 0.151600 
-0.643590 17.940900 -2.533420 -33.264018 52.837800 -38.380854 -15.742577 12.542747 1.103732 20.577318 -1.204178 -11.125811 -0.664578 7.808619 27.055330 -0.017163 5.924820 2.456050 0.322920 0.364590 -0.093400 18.201815 -8.140799 5.567652 -22.365567 5.716459 -54.003338 17.064328 -30.119131 70.768816 -2.197513 -13.981158 -0.221728 0.405830 0.368200 0.027870 -5.096767 -1.060996 -9.016979 20.493931 -7.236193 30.169744 -6.924579 -1.070809 20.489820 3.814250 2.901082 -6.960098 1.239051 -10.772250 36.749279 7.862930 -15.535120 -5.573870 -10.370718 -31.414129 1.877828 -13.312113 -56.177504 11.629035 97.088279 -50.804437 -51.494298 -3.783046 2.118043 -0.166430 0.174610 -0.242220 0.247500 3.467210 25.162386 5.080211 -18.507556 21.689764 -8.153811 -101.248909 52.774033 -56.703001 1.912280 -0.925016 -0.052610 0.274180 -0.013320 0.160290 
-0.644650 18.004410 -2.507380 -34.267409 54.148081 -38.281972 -15.789956 12.442645 1.039915 20.012375 -0.992863 -11.665476 -0.413011 7.321409 25.105780 -0.064601 5.531047 2.584530 0.338990 0.371760 -0.074130 18.156744 -8.070938 5.708584 -21.209589 7.058884 -54.192261 17.594511 -34.136911 76.537564 -2.636087 -15.325098 -0.515055 0.394670 0.330320 0.031530 -5.291727 -0.724996 -9.148371 21.306500 -6.688495 29.070374 -7.228863 -0.360095 20.013277 4.542588 3.474315 -7.454165 2.137645 -11.684920 38.649730 8.617010 -16.552180 -6.318230 -12.779922 -29.493823 2.546943 -25.120977 -53.814902 20.360669 103.425396 -56.835926 -66.359883 -3.622375 1.869982 -0.133260 0.137210 -0.208690 0.243980 4.552243 23.362551 5.093909 -13.275233 24.172946 -4.881176 -110.705051 57.116041 -73.817424 1.983564 -0.669308 -0.036870 0.260990 -0.025190 0.156850 
-0.646140 18.067560 -2.480530 -35.282121 55.527580 -38.186199 -15.834213 12.337821 1.011017 19.659081 -0.811228 -12.200650 -0.417603 6.959886 23.160033 -0.080239 5.167302 2.697286 0.344890 0.368730 -0.047080 18.107420 -7.993529 5.831133 -19.574612 8.784160 -54.480494 17.349387 -37.928289 82.725925 -3.083794 -16.650710 -0.774534 0.361180 0.270310 0.027930 -5.505166 -0.369136 -9.284902 22.345949 -6.206320 28.374136 -8.010112 0.342236 19.395653 5.243925 3.835604 -8.608089 2.817186 -12.259991 40.937662 9.695210 -17.293790 -7.189670 -15.737586 -27.204193 4.653685 -32.785752 -50.643297 23.205052 111.742052 -64.999894 -88.978986 -3.693070 2.044664 -0.082170 0.079330 -0.154900 0.230470 6.103490 22.108474 4.784406 -7.535843 25.972851 -2.116526 -121.550028 61.534262 -96.925925 2.267641 -0.972808 -0.015450 0.240710 -0.042090 0.148890 
-0.649760 18.131860 -2.450650 -36.012380 56.926858 -37.875742 -15.873171 12.298494 1.056178 19.177672 -0.698414 -13.092184 -0.503425 6.673322 21.703055 -0.093984 4.854774 2.781869 0.345930 0.359280 -0.013810 18.038522 -8.003545 5.849380 -16.956477 10.726463 -53.928242 16.154706 -40.152351 88.032957 -3.431089 -17.634177 -0.949320 0.323020 0.200780 0.019970 -5.658949 -0.076672 -9.377964 22.963848 -5.434058 28.052685 -8.538680 1.054172 17.205410 5.864315 4.498709 -9.073672 4.244039 -12.783617 43.760110 10.805230 -17.651550 -7.960190 -19.064561 -25.811583 6.163422 -39.380706 -44.375729 17.722720 142.949887 -78.386001 -139.611079 -3.528896 3.432336 -0.017770 0.016620 -0.094460 0.208660 8.084361 21.694397 3.722308 0.050067 26.319864 -1.947671 -144.273889 70.850500 -137.421349 2.333319 -1.857586 0.000090 0.219510 -0.056970 0.131120 
-0.653700 18.183220 -2.412170 -36.478386 58.414028 -37.250277 -15.912396 12.238129 1.131035 18.769461 -0.675645 -13.782365 -0.995910 6.461277 19.999290 -0.103205 4.585600 2.860219 0.352640 0.346820 0.033350 17.971149 -8.064554 5.793452 -13.723875 12.406087 -52.996811 13.887697 -41.518788 93.578378 -3.733614 -18.518718 -1.100719 0.288780 0.137140 0.022450 -5.837239 0.264252 -9.455193 23.028175 -4.498024 27.484439 -8.781996 1.534351 14.038461 6.374366 5.204084 -8.866283 6.128844 -13.672663 46.690162 10.741350 -17.903680 -7.721760 -21.594304 -24.278852 6.398609 -44.117636 -36.992371 11.235592 -131.797301 -78.568772 120.474448 -3.393273 2.277593 0.030210 -0.028460 -0.043860 0.189300 9.684910 20.872055 2.425905 9.177728 25.113858 -3.576083 160.792132 73.742852 151.489297 2.088311 -1.576512 0.017240 0.191550 -0.076160 0.109580 
